PathFileType	4	(X/Y/Z)	/Users/rkoike/Documents/python/sports2d/webcam_20250606_145141/webcam_20250606_145141_px_person01.trc
DataRate	CameraRate	NumFrames	NumMarkers	Units	OrigDataRate	OrigDataStartFrame	OrigNumFrames
30	30	6	22	m	30	503	4026
Frame#	Time	Hip			RHip			RKnee			RAnkle			RBigToe			RSmallToe			RHeel			LHip			LKnee			LAnkle			LBigToe			LSmallToe			LHeel			Neck			Head			Nose			RShoulder			RElbow			RWrist			LShoulder			LElbow			LWrist			
		X1	Y1	Z1	X2	Y2	Z2	X3	Y3	Z3	X4	Y4	Z4	X5	Y5	Z5	X6	Y6	Z6	X7	Y7	Z7	X8	Y8	Z8	X9	Y9	Z9	X10	Y10	Z10	X11	Y11	Z11	X12	Y12	Z12	X13	Y13	Z13	X14	Y14	Z14	X15	Y15	Z15	X16	Y16	Z16	X17	Y17	Z17	X18	Y18	Z18	X19	Y19	Z19	X20	Y20	Z20	X21	Y21	Z21	X22	Y22	Z22
503	16.770832298136643	448.5017244281483	695.074043571738	0.0	322.6511301276887	686.7064427806561	0.0	157.58944061059674	726.1550699571383	0.0	1097.488063558352	503.36829283057574	0.0	1135.5714668227663	293.9095748762961	0.0	1249.8014322916667	114.45313072204588	0.0			0.0	617.3319939860345	679.7036184463664	0.0	949.2482387366953	656.608451973823	0.0	1033.7695312500002	234.10156536102298	0.0	1210.2476546499465	390.76007607248084	0.0	1249.801432291667	144.36523938179016	0.0	1173.6548700871806	503.36829283057574	0.0	484.16936699351953	397.31481835258023	0.0	436.5231000259035	107.91739886066223	0.0	412.5836700300716	260.2881448985503	0.0	303.37324051246065	465.89238431268916	0.0	102.43596419933573	708.2531513595179	0.0	113.93824890887413	506.68547940000786	0.0	700.8789199659539	475.0666029311072	0.0	781.77462829573	708.6852991821892	0.0	776.056843502744	726.4662081723435	0.0
504	16.804173913043478	444.5749922324646	700.9731337015126	0.0	321.50555380814376	686.9710281235945	0.0	157.70889519249522	726.19692583812	0.0	1097.488063558352	503.36829283057574	0.0	1135.5714668227663	293.9095748762961	0.0	1249.8014322916667	114.45313072204588	0.0			0.0	623.0076008479512	680.0030074317674	0.0	949.2483104877596	656.608421872918	0.0	1033.7695312500002	234.10156536102298	0.0	1210.2476546499465	390.76007607248084	0.0	1249.801432291667	144.36523938179016	0.0	1173.6548700871806	503.36829283057574	0.0	482.4746775228342	400.15857496696265	0.0	426.4243410731322	111.40342757351881	0.0	405.1907284207939	265.68083904422673	0.0	298.5018421407715	466.0147477138113	0.0	78.76336172001511	705.5979700266399	0.0	152.6125021338232	463.8210222213625	0.0	697.9829244418181	476.3913778704467	0.0	777.6920661332207	711.2253784167676	0.0	770.7232751512948	738.6268622329534	0.0
505	16.83751552795031	455.88322268649057	721.8522234081523	0.0	325.04702755766886	703.9751872734893	0.0	157.9652431056536	726.2614971007829	0.0	1097.488063558352	503.36829283057574	0.0	1135.5714668227663	293.9095748762961	0.0	1249.8014322916667	114.4531307220459	0.0			0.0	631.197540444573	698.7538594191299	0.0	949.2483501022542	656.6084052513281	0.0	1033.7695312500002	234.10156536102298	0.0	1210.2476546499465	390.76007607248084	0.0	1249.801432291667	144.36523938179016	0.0	1173.6548700871806	503.36829283057574	0.0	482.82539682560514	396.8604325700038	0.0	421.86401725448496	110.0139367213968	0.0	402.76593957947244	268.4254563596836	0.0	300.14713942397185	464.50987462255443	0.0	67.91117266591051	703.6515437835848	0.0	183.21199241539222	437.57326678263325	0.0	699.9871659240671	474.20726864343146	0.0	775.2342059838093	719.1233287476679	0.0	761.0223720539982	749.6066805511166	0.0
506	16.87085714285714	473.889603465565	742.6453037010713	0.0	334.8039588519047	729.9440750466832	0.0	157.7163810941252	726.2170255010516	0.0	1097.488063558352	503.36829283057574	0.0	1135.5714668227663	293.9095748762961	0.0	1249.8014322916667	114.45313072204588	0.0			0.0	638.8756327242546	727.3512420626563	0.0	949.248350726589	656.6084049869959	0.0	1033.7695312500002	234.10156536102295	0.0	1210.2476546499465	390.76007607248084	0.0	1249.801432291667	144.36523938179016	0.0	1173.6548700871806	503.36829283057574	0.0	485.30511436248844	391.9265686438334	0.0	424.14790802054495	108.28902477232575	0.0	405.0758105614899	271.71473812761053	0.0	305.0356279299005	463.88324483861237	0.0	68.83363862900721	704.6328033945223	0.0	203.70174715941874	424.5089043054585	0.0	705.3238441642474	472.07693722807346	0.0	775.903841718809	723.5781866139995	0.0	752.6518329915431	759.1111966173471	0.0
507	16.904198757763975	485.5904713386619	743.8439814797435	0.0	347.056169059968	744.1409510789832	0.0	155.7763627402528	725.8503488710294	0.0	1097.488063558352	503.36829283057574	0.0	1135.5714668227663	293.9095748762961	0.0	1249.8014322916667	114.45313072204588	0.0			0.0	648.3239015032075	742.1694326371022	0.0	949.2483430677923	656.6084082102109	0.0	1033.7695312500002	234.10156536102298	0.0	1210.2476546499465	390.76007607248084	0.0	1249.801432291667	144.36523938179016	0.0	1173.6548700871806	503.36829283057574	0.0	491.0572258016639	390.35139816125326	0.0	431.65231214963757	111.18476605823092	0.0	410.88883448542606	275.7840699933822	0.0	310.03644658006533	466.1953761748138	0.0	78.18472424777809	705.6805781587343	0.0	219.44310194208526	422.0851306797474	0.0	712.2012316037868	472.19941147488555	0.0	782.0656068751684	720.5953752490365	0.0	750.4854390258652	764.8344266405705	0.0
508	16.937540372670806	494.2379316285492	731.3443363499695	0.0	359.9406538971784	737.0823748067205	0.0	153.35063292722793	725.3935778748256	0.0	1097.488063558352	503.36829283057574	0.0	1135.5714668227663	293.9095748762961	0.0	1249.8014322916667	114.45313072204588	0.0			0.0	660.4409128707761	733.6343937471019	0.0	949.248339683401	656.6084096617274	0.0	1033.7695312500002	234.10156536102298	0.0	1210.2476546499465	390.76007607248084	0.0	1249.801432291667	144.36523938179016	0.0	1173.6548700871806	503.36829283057574	0.0	500.2509723826547	391.49399956339147	0.0	441.8887234292303	115.90177753019329	0.0	420.22560701987703	276.81528367645075	0.0	317.45766162660556	469.0235880121152	0.0	92.44028940680185	703.3412538445494	0.0	235.82427030526046	425.8859904423399	0.0	721.8627172942735	471.6571627556157	0.0	793.9214048064202	717.5417959304403	0.0	756.454430656089	764.9949360883743	0.0
